<?xml version="1.0" encoding="UTF-8" standalone="no"?>
<svg
   xmlns:dc="http://purl.org/dc/elements/1.1/"
   xmlns:cc="http://creativecommons.org/ns#"
   xmlns:rdf="http://www.w3.org/1999/02/22-rdf-syntax-ns#"
   xmlns:svg="http://www.w3.org/2000/svg"
   xmlns="http://www.w3.org/2000/svg"
   xmlns:sodipodi="http://sodipodi.sourceforge.net/DTD/sodipodi-0.dtd"
   xmlns:inkscape="http://www.inkscape.org/namespaces/inkscape"
   viewBox="0 0 1490.4073 811.3446"
   height="811.3446"
   width="1490.4073"
   id="svg2"
   version="1.1"
   sodipodi:docname="lying-logo.svg"
   inkscape:version="0.92.2 5c3e80d, 2017-08-06">
  <sodipodi:namedview
     pagecolor="#ffffff"
     bordercolor="#666666"
     borderopacity="1"
     objecttolerance="10"
     gridtolerance="10"
     guidetolerance="10"
     inkscape:pageopacity="0"
     inkscape:pageshadow="2"
     inkscape:window-width="1920"
     inkscape:window-height="1048"
     id="namedview9"
     showgrid="false"
     inkscape:zoom="0.29087517"
     inkscape:cx="-318.82664"
     inkscape:cy="405.6723"
     inkscape:window-x="0"
     inkscape:window-y="32"
     inkscape:window-maximized="1"
     inkscape:current-layer="svg2" />
  <metadata
     id="metadata8">
    <rdf:RDF>
      <cc:Work
         rdf:about="">
        <dc:format>image/svg+xml</dc:format>
        <dc:type
           rdf:resource="http://purl.org/dc/dcmitype/StillImage" />
        <dc:title></dc:title>
      </cc:Work>
    </rdf:RDF>
  </metadata>
  <defs
     id="defs6">
    <clipPath
       id="clipPath4566"
       clipPathUnits="userSpaceOnUse">
      <rect
         ry="8.6506501e-05"
         y="1277.4536"
         x="1179.3975"
         height="95.941658"
         width="590.69604"
         id="rect4568"
         style="opacity:1;fill:#0000ff;fill-opacity:1;stroke:none;stroke-width:0.37795275;stroke-linecap:butt;stroke-linejoin:miter;stroke-miterlimit:4;stroke-dasharray:none;stroke-opacity:1;paint-order:stroke markers fill" />
    </clipPath>
  </defs>
  <path
     d="M 1155.0101,146.23305 1490.4074,727.1583 H 849.0812 l -15.1573,-24.7876 h 579.5446 L 1123.6962,200.4703 Z M 14.31114,702.3707 0,727.1583 H 719.487 L 1104.9472,59.52162 1070.5824,0 665.0685,702.3707 Z M 42.9334,652.7955 28.62227,677.5831 h 84.9036 l 14.31112,-24.7876 z m 0,0 -14.31113,24.7876 h 84.9036 l 14.31112,-24.7876 z m 73.69971,-24.9502 h 25.60885 L 461.09961,75.5677 694.37981,479.6209 725.2044,426.23107 479.11979,0 Z"
     style="fill:#ffffff;stroke:none;stroke-width:1px;stroke-linecap:butt;stroke-linejoin:miter;stroke-opacity:1"
     id="path4560" />
  <path
     d="m 1484.3044,788.801 q 0,1.0145 -0.9568,1.9162 -0.8698,0.8642 -2.4355,1.5405 -1.4787,0.6387 -3.5663,1.0144 -2.0007,0.3758 -4.2623,0.3758 -2.3484,0 -4.436,-0.3758 -2.0007,-0.3757 -3.5663,-1.0144 -1.4788,-0.6763 -2.3485,-1.5405 -0.8699,-0.9017 -0.8699,-1.9162 0,-0.9769 0.8699,-1.841 0.8697,-0.9018 2.3485,-1.5405 1.5656,-0.6763 3.5663,-1.0521 2.0876,-0.4132 4.436,-0.4132 2.2616,0 4.2623,0.4132 2.0876,0.3758 3.5663,1.0521 1.5657,0.6387 2.4355,1.5405 0.9568,0.8641 0.9568,1.841 z m -42.9234,8.8296 q 0,2.5173 -1.4786,4.5086 -1.4788,2.029 -3.9143,3.5319 -2.4355,1.5405 -5.6539,2.5925 -3.2183,1.0896 -6.7846,1.7659 -3.4793,0.6763 -7.1327,0.9769 -3.5661,0.3382 -6.7846,0.3382 h -40.7949 v -9.7689 h 40.7949 q 4.61,0 6.8717,-1.0145 2.2616,-1.0144 2.2616,-2.9306 v -30.8471 q 0,-1.9162 -2.2616,-2.8931 -2.2617,-1.0144 -6.8717,-1.0144 h -40.7949 q -4.1751,0 -6.6108,1.1271 -2.4355,1.0896 -2.4355,2.7804 v 13.2256 q 0,1.9161 2.3486,2.9306 2.3485,1.0145 6.8716,1.0145 h 40.621 v 9.7688 h -40.7949 q -3.2184,0 -6.7847,-0.3006 -3.5663,-0.3381 -7.1327,-1.0144 -3.4792,-0.6763 -6.6976,-1.7284 -3.2183,-1.0895 -5.6539,-2.5924 -2.4355,-1.5405 -3.9141,-3.5319 -1.4788,-2.0289 -1.4788,-4.5462 v -13.2256 q 0,-1.3902 0.6958,-2.9306 0.783,-1.5405 2.3487,-3.0434 1.5656,-1.5405 4.0011,-2.9307 2.5226,-1.3901 6.0019,-2.4422 3.5663,-1.052 8.1764,-1.6908 4.6101,-0.6387 10.4379,-0.6387 h 40.7949 q 3.2185,0 6.7846,0.3382 3.6534,0.3005 7.1327,0.9768 3.5663,0.6763 6.7846,1.7659 3.2184,1.0521 5.6539,2.5926 2.4355,1.5028 3.9143,3.4942 1.4786,1.9913 1.4786,4.5087 z m -125.47,-3.9076 h -22.6155 v -22.5435 q 0,-1.9162 -1.5656,-3.4191 -1.4788,-1.5405 -4.0883,-2.6301 -2.6095,-1.0896 -6.1757,-1.6532 -3.4794,-0.6011 -7.5675,-0.6011 h -39.5773 v 30.847 h -22.6155 v -35.769 q 0,-1.0145 0.8698,-1.8787 0.8698,-0.9017 2.4355,-1.5405 1.5657,-0.6763 3.6533,-1.052 2.0876,-0.3757 4.4361,-0.3757 h 50.972 q 4.2621,0 8.9593,0.4133 4.784,0.4133 9.394,1.3526 4.6972,0.9018 8.8723,2.3295 4.2622,1.3902 7.4806,3.4191 3.3054,1.9913 5.2188,4.6214 1.9137,2.6301 1.9137,5.9365 z m -128.9493,-48.957 h -22.6156 v -8.8296 h 22.6156 z m 0,48.957 h -22.6156 v -40.6159 h 22.6156 z m -47.7074,3.9076 q 0,2.5173 -1.4787,4.5086 -1.4787,2.029 -3.9142,3.5319 -2.4355,1.5405 -5.6539,2.5925 -3.2184,1.0896 -6.7847,1.7659 -3.4793,0.6763 -7.0456,0.9769 -3.5663,0.3382 -6.7846,0.3382 h -40.795 v -9.7689 h 40.795 q 4.5231,0 6.7846,-1.0145 2.2616,-1.0144 2.2616,-2.9306 v -44.5235 h 22.6155 z m -31.6617,-3.9076 h -40.795 q -4.8711,0 -10.4379,-0.7139 -5.48,-0.7138 -10.264,-2.3295 -4.7841,-1.6531 -7.9155,-4.2456 -3.1313,-2.6301 -3.1313,-6.4249 v -26.902 h 22.6155 v 26.902 q 0,1.9161 2.3485,2.9306 2.3486,1.0145 6.9587,1.0145 h 40.621 z m -88.9373,0 H 915.4936 q -2.4355,0 -4.5231,-0.3757 -2.0875,-0.3757 -3.6532,-1.0145 -1.4787,-0.6763 -2.3486,-1.578 -0.8698,-0.9018 -0.8698,-1.9538 v -48.957 h 22.6155 v 44.1102 h 91.9409 z"
     style="font-style:normal;font-variant:normal;font-weight:normal;font-stretch:normal;font-size:medium;line-height:1.25;font-family:Audiowide;-inkscape-font-specification:Audiowide;text-align:start;letter-spacing:2.08484459px;word-spacing:-0.01389898px;text-anchor:start;fill:#ffffff;fill-opacity:1;stroke:none;stroke-width:2.92699552"
     id="path865" />
</svg>
