<svg version="1.1" viewBox="0 0 1490.4 811.34" xmlns="http://www.w3.org/2000/svg" xmlns:cc="http://creativecommons.org/ns#" xmlns:dc="http://purl.org/dc/elements/1.1/" xmlns:rdf="http://www.w3.org/1999/02/22-rdf-syntax-ns#">
 <path d="m1484.3 788.8q0 1.0145-0.9568 1.9162-0.8698 0.8642-2.4355 1.5405-1.4787 0.6387-3.5663 1.0144-2.0007 0.3758-4.2623 0.3758-2.3484 0-4.436-0.3758-2.0007-0.3757-3.5663-1.0144-1.4788-0.6763-2.3485-1.5405-0.8699-0.9017-0.8699-1.9162 0-0.9769 0.8699-1.841 0.8697-0.9018 2.3485-1.5405 1.5656-0.6763 3.5663-1.0521 2.0876-0.4132 4.436-0.4132 2.2616 0 4.2623 0.4132 2.0876 0.3758 3.5663 1.0521 1.5657 0.6387 2.4355 1.5405 0.9568 0.8641 0.9568 1.841zm-42.923 8.8296q0 2.5173-1.4786 4.5086-1.4788 2.029-3.9143 3.5319-2.4355 1.5405-5.6539 2.5925-3.2183 1.0896-6.7846 1.7659-3.4793 0.6763-7.1327 0.9769-3.5661 0.3382-6.7846 0.3382h-40.795v-9.7689h40.795q4.61 0 6.8717-1.0145 2.2616-1.0144 2.2616-2.9306v-30.847q0-1.9162-2.2616-2.8931-2.2617-1.0144-6.8717-1.0144h-40.795q-4.1751 0-6.6108 1.1271-2.4355 1.0896-2.4355 2.7804v13.226q0 1.9161 2.3486 2.9306 2.3485 1.0145 6.8716 1.0145h40.621v9.7688h-40.795q-3.2184 0-6.7847-0.3006-3.5663-0.3381-7.1327-1.0144-3.4792-0.6763-6.6976-1.7284-3.2183-1.0895-5.6539-2.5924-2.4355-1.5405-3.9141-3.5319-1.4788-2.0289-1.4788-4.5462v-13.226q0-1.3902 0.6958-2.9306 0.783-1.5405 2.3487-3.0434 1.5656-1.5405 4.0011-2.9307 2.5226-1.3901 6.0019-2.4422 3.5663-1.052 8.1764-1.6908 4.6101-0.6387 10.438-0.6387h40.795q3.2185 0 6.7846 0.3382 3.6534 0.3005 7.1327 0.9768 3.5663 0.6763 6.7846 1.7659 3.2184 1.0521 5.6539 2.5926 2.4355 1.5028 3.9143 3.4942 1.4786 1.9913 1.4786 4.5087zm-125.47-3.9076h-22.616v-22.544q0-1.9162-1.5656-3.4191-1.4788-1.5405-4.0883-2.6301t-6.1757-1.6532q-3.4794-0.6011-7.5675-0.6011h-39.577v30.847h-22.616v-35.769q0-1.0145 0.8698-1.8787 0.8698-0.9017 2.4355-1.5405 1.5657-0.6763 3.6533-1.052t4.4361-0.3757h50.972q4.2621 0 8.9593 0.4133 4.784 0.4133 9.394 1.3526 4.6972 0.9018 8.8723 2.3295 4.2622 1.3902 7.4806 3.4191 3.3054 1.9913 5.2188 4.6214 1.9137 2.6301 1.9137 5.9365zm-128.95-48.957h-22.616v-8.8296h22.616zm0 48.957h-22.616v-40.616h22.616zm-47.707 3.9076q0 2.5173-1.4787 4.5086-1.4787 2.029-3.9142 3.5319-2.4355 1.5405-5.6539 2.5925-3.2184 1.0896-6.7847 1.7659-3.4793 0.6763-7.0456 0.9769-3.5663 0.3382-6.7846 0.3382h-40.795v-9.7689h40.795q4.5231 0 6.7846-1.0145 2.2616-1.0144 2.2616-2.9306v-44.524h22.616zm-31.662-3.9076h-40.795q-4.8711 0-10.438-0.7139-5.48-0.7138-10.264-2.3295-4.7841-1.6531-7.9155-4.2456-3.1313-2.6301-3.1313-6.4249v-26.902h22.616v26.902q0 1.9161 2.3485 2.9306 2.3486 1.0145 6.9587 1.0145h40.621zm-88.937 0h-103.16q-2.4355 0-4.5231-0.3757-2.0875-0.3757-3.6532-1.0145-1.4787-0.6763-2.3486-1.578-0.8698-0.9018-0.8698-1.9538v-48.957h22.616v44.11h91.941zm136.35-647.49 335.4 580.93h-641.33l-15.157-24.788h579.54l-289.77-501.9zm-1140.7 556.14-14.311 24.788h719.49l385.46-667.64-34.365-59.522-405.51 702.37zm28.622-49.575-14.311 24.788h84.904l14.311-24.788zl-14.311 24.788h84.904l14.311-24.788zm73.7-24.95h25.609l318.86-552.28 233.28 404.05 30.825-53.39-246.08-426.23z"/>
</svg>
